<svg width="249" height="91" viewBox="0 0 249 91" fill="none" xmlns="http://www.w3.org/2000/svg">
<path d="M97.9617 56.6507V50.639C98.9695 51.6702 100.042 52.4554 101.178 52.9944C102.327 53.5335 103.481 53.803 104.641 53.803C106.001 53.803 106.997 53.4632 107.63 52.7835C108.262 52.1038 108.579 51.0198 108.579 49.5316V36.2776H102.233V31.7073H113.764V49.5316C113.764 52.7308 113.091 55.0218 111.743 56.4046C110.407 57.7757 108.198 58.4612 105.116 58.4612C104.003 58.4612 102.837 58.3089 101.618 58.0042C100.411 57.6995 99.1921 57.2484 97.9617 56.6507ZM128.565 41.973C127.335 41.973 126.368 42.5179 125.665 43.6077C124.962 44.6859 124.61 46.1917 124.61 48.1253C124.61 50.0589 124.962 51.5706 125.665 52.6605C126.368 53.7386 127.335 54.2776 128.565 54.2776C129.807 54.2776 130.78 53.7386 131.483 52.6605C132.186 51.5706 132.538 50.0589 132.538 48.1253C132.538 46.1917 132.186 44.6859 131.483 43.6077C130.78 42.5179 129.807 41.973 128.565 41.973ZM119.46 48.1253C119.46 44.9495 120.28 42.4359 121.921 40.5843C123.573 38.721 125.788 37.7894 128.565 37.7894C131.354 37.7894 133.569 38.721 135.21 40.5843C136.862 42.4359 137.688 44.9495 137.688 48.1253C137.688 51.3011 136.862 53.8206 135.21 55.6839C133.569 57.5355 131.354 58.4612 128.565 58.4612C125.788 58.4612 123.573 57.5355 121.921 55.6839C120.28 53.8206 119.46 51.3011 119.46 48.1253ZM142.241 51.0784V38.264H147.391V50.2874C147.391 51.7054 147.591 52.7191 147.989 53.3284C148.387 53.9378 149.05 54.2425 149.975 54.2425C150.901 54.2425 151.622 53.8323 152.137 53.012C152.665 52.1917 152.928 51.0433 152.928 49.5667V38.264H158.079V57.9515H152.928V55.0335C152.565 56.1234 151.944 56.9671 151.065 57.5648C150.198 58.1624 149.149 58.4612 147.919 58.4612C146.044 58.4612 144.626 57.8401 143.665 56.598C142.716 55.3558 142.241 53.5159 142.241 51.0784ZM181.352 43.6956C180.79 43.18 180.128 42.7933 179.366 42.5355C178.616 42.2776 177.79 42.1487 176.887 42.1487C175.798 42.1487 174.843 42.3421 174.022 42.7288C173.214 43.1038 172.587 43.6546 172.141 44.3812C171.86 44.8265 171.661 45.3655 171.544 45.9984C171.438 46.6312 171.385 47.5921 171.385 48.8812V57.9515H166.235V38.264H171.385V41.3226C171.889 40.1976 172.663 39.3304 173.706 38.721C174.749 38.0999 175.968 37.7894 177.362 37.7894C178.065 37.7894 178.751 37.8773 179.419 38.053C180.098 38.2171 180.743 38.4632 181.352 38.7913V43.6956ZM201.637 45.1722V57.9515H196.522V45.9632C196.522 44.5335 196.317 43.514 195.907 42.9046C195.509 42.2835 194.852 41.973 193.938 41.973C193.012 41.973 192.28 42.389 191.741 43.221C191.214 44.053 190.95 45.2073 190.95 46.6839V57.9515H185.835V38.264H190.95V41.2171C191.313 40.1273 191.934 39.2835 192.813 38.6859C193.692 38.0882 194.753 37.7894 195.995 37.7894C197.858 37.7894 199.264 38.4105 200.214 39.6526C201.163 40.8831 201.637 42.723 201.637 45.1722ZM223.874 56.9847C222.678 57.4769 221.46 57.846 220.218 58.0921C218.975 58.3382 217.663 58.4612 216.28 58.4612C212.987 58.4612 210.468 57.5823 208.721 55.8245C206.987 54.055 206.12 51.512 206.12 48.1956C206.12 44.9847 206.958 42.4476 208.634 40.5843C210.309 38.721 212.594 37.7894 215.489 37.7894C218.407 37.7894 220.669 38.6566 222.274 40.3909C223.891 42.1136 224.7 44.5452 224.7 47.6859V49.7776H211.358C211.37 51.3245 211.827 52.4788 212.729 53.2405C213.632 54.0023 214.979 54.3831 216.772 54.3831C217.956 54.3831 219.122 54.2132 220.27 53.8734C221.419 53.5335 222.62 52.9944 223.874 52.2562V56.9847ZM219.514 45.9105C219.491 44.5511 219.139 43.5257 218.46 42.8343C217.792 42.1312 216.802 41.7796 215.489 41.7796C214.305 41.7796 213.362 42.1429 212.659 42.8694C211.956 43.5843 211.54 44.6038 211.411 45.928L219.514 45.9105ZM238.692 60.0784C238.001 61.93 237.169 63.2776 236.196 64.1214C235.235 64.9769 234.063 65.4046 232.68 65.4046H228.427V61.4847H230.518C231.573 61.4847 232.346 61.303 232.839 60.9398C233.331 60.5882 233.829 59.762 234.333 58.4612L234.719 57.4066L227.231 38.264H232.645L237.145 51.0433L241.452 38.264H246.866L238.692 60.0784Z" fill="black"/>
<path fill-rule="evenodd" clip-rule="evenodd" d="M68.8681 38.4091L66.7615 58.6072C66.6813 59.3604 66.3192 60.0555 65.7478 60.5527C65.1764 61.05 64.438 61.3127 63.6809 61.2881L59.2473 61.1154L54.3154 70.4417C53.4783 72.0133 52.0533 73.1898 50.3517 73.7143C48.65 74.2387 46.81 74.0684 45.2334 73.2407L39.2841 70.0945L32.9731 82.0286L6.27621 67.9106L20.6934 40.648C19.6194 37.0346 19.3819 33.2242 19.9988 29.5054C20.6158 25.7866 22.071 22.257 24.2543 19.184C26.4376 16.1111 29.2916 13.5753 32.6002 11.7689C35.9088 9.96241 39.5851 8.9327 43.3507 8.7577C47.1162 8.5827 50.8722 9.26697 54.3341 10.7588C57.796 12.2506 60.8729 14.5107 63.3318 17.368C65.7907 20.2252 67.567 23.6046 68.5262 27.2501C69.4854 30.8956 69.6023 34.7117 68.8681 38.4091Z" fill="#F2A626"/>
<path fill-rule="evenodd" clip-rule="evenodd" d="M32.973 82.0286L19.8721 75.1005L42.3626 32.5711C43.2849 30.8386 44.8559 29.5419 46.732 28.9651C48.608 28.3883 50.6362 28.5783 52.3725 29.4935C54.1043 30.4153 55.4013 31.9847 55.9804 33.8592C56.5595 35.7337 56.3737 37.7612 55.4636 39.4992L32.973 82.0286Z" fill="#52035E"/>
<path fill-rule="evenodd" clip-rule="evenodd" d="M52.3637 29.4888C51.0678 28.8035 49.5977 28.518 48.1394 28.6684C46.6812 28.8188 45.3003 29.3984 44.1715 30.3338C43.0427 31.2692 42.2168 32.5184 41.7982 33.9234C41.3796 35.3283 41.3871 36.8258 41.8198 38.2265C42.2525 39.6272 43.091 40.868 44.2291 41.792C45.3672 42.716 46.7538 43.2817 48.2135 43.4175C49.6732 43.5532 51.1403 43.2529 52.4293 42.5546C53.7183 41.8563 54.7712 40.7914 55.4548 39.4945C55.9095 38.6347 56.1902 37.6937 56.2809 36.7253C56.3716 35.7569 56.2705 34.7801 55.9835 33.8509C55.6964 32.9216 55.2289 32.058 54.6078 31.3095C53.9867 30.561 53.2241 29.9423 52.3637 29.4888Z" fill="#52035E"/>
<path fill-rule="evenodd" clip-rule="evenodd" d="M61.1909 45.9102L65.1548 40.9815L50.4185 33.1886L61.1909 45.9102Z" fill="#E6E7E8"/>
</svg>
